# xmcd
#
# Track frame offsets:
#	150
#	15173
#	26965
#	39212
#	57271
#	74811
#	89589
#	103050
#	119943
#	138361
#	151853
#	165308
#	177396
#	191346
#	203740
#	217818
#	232421
#	246074
#	261951
#
# Disc length: 3658 seconds
#
# Revision: 0
# Processed by: cddbd v1.5.2PL0 Copyright (c) Steve Scherf et al.
# Submitted via: EasyCDDAExtractor 15.2.5.1
#
DISCID=100e4813
DTITLE=Fernando and Sorocaba - Acústico na Ópera de Arame
DYEAR=2012
DGENRE=sertanejo
TTITLE0=A Verdade
TTITLE1=Eu Acho é Pouco
TTITLE2=Falo ou Não Falo
TTITLE3=Férias em Salvador
TTITLE4=6 de Janeiro de 2003
TTITLE5=Apelou
TTITLE6=Pega Eu
TTITLE7=Nada Faz Sentido
TTITLE8=Everest - Part. Luan Santana
TTITLE9=Tô Passando Mal
TTITLE10=Perdeu - Part. Thaeme and Thiago
TTITLE11=É Tenso
TTITLE12=Tá Tirando Onda - Part. Inimigos da HP
TTITLE13=O Cara
TTITLE14=Teus Segredos
TTITLE15=Para Para - Thaeme and Thiago
TTITLE16=Eu Fui Clonado - Jean and Júlio
TTITLE17=Pense Pra Dizer - Tânia Mara
TTITLE18=É Tenso - Versão Rádio
EXTD=
EXTT0=
EXTT1=
EXTT2=
EXTT3=
EXTT4=
EXTT5=
EXTT6=
EXTT7=
EXTT8=
EXTT9=
EXTT10=
EXTT11=
EXTT12=
EXTT13=
EXTT14=
EXTT15=
EXTT16=
EXTT17=
EXTT18=
PLAYORDER=
